<?xml version="1.0" standalone="no"?>
<!DOCTYPE svg PUBLIC "-//W3C//DTD SVG 20010904//EN"
 "http://www.w3.org/TR/2001/REC-SVG-20010904/DTD/svg10.dtd">
<svg version="1.0" xmlns="http://www.w3.org/2000/svg"
 width="384.000000pt" height="384.000000pt" viewBox="0 0 384.000000 384.000000"
 preserveAspectRatio="xMidYMid meet">
<metadata>
Created by potrace 1.11, written by Peter Selinger 2001-2013
</metadata>
<g transform="translate(0.000000,384.000000) scale(0.100000,-0.100000)"
fill="#000000" stroke="none">
<path d="M1318 3265 c-58 -21 -122 -69 -151 -114 -57 -85 -56 -73 -53 -1028
l2 -878 23 -85 c70 -257 242 -445 506 -554 122 -50 368 -58 499 -16 244 78
432 247 522 468 60 149 57 96 60 1071 1 783 0 900 -14 940 -32 96 -97 163
-191 196 -37 13 -124 15 -605 14 -449 0 -568 -3 -598 -14z"/>
</g>
</svg>
